# xmcd
#
# Track frame offsets: 
#        150
#        12680
#        23622
#        38975
#        52050
#        67212
#        79732
#        96655
#        115257
#        125605
#        143267
#        161485
#
# Disc length: 2321 seconds
#
# Revision: 1
# Processed by: cddbd v1.5.2PL0 Copyright (c) Steve Scherf et al.
# Submitted via: ExactAudioCopyFreeDBPlugin 1.0
#
DISCID=a7090f0c
DTITLE=Barrence Whitfield - Let's Lose It
DYEAR=1991
DGENRE=Rhythm and Blues
TTITLE0=Method to My Madness
TTITLE1=I Smell a Rat
TTITLE2=Under My Nose
TTITLE3=Dust on My Needle
TTITLE4=Girl Gunslinger
TTITLE5=Let's Lose It
TTITLE6=Calling All Beasts
TTITLE7=For A Good Time
TTITLE8=My Mumblin' Baby
TTITLE9=Signs of a Struggle
TTITLE10=Loneliness Ain't No Crime
TTITLE11=Wake Up
EXTD=
EXTT0=
EXTT1=
EXTT2=
EXTT3=
EXTT4=
EXTT5=
EXTT6=
EXTT7=
EXTT8=
EXTT9=
EXTT10=
EXTT11=
PLAYORDER=
